<?xml version="1.0" encoding="utf-8"?>
<!-- Generator: Adobe Illustrator 27.4.1, SVG Export Plug-In . SVG Version: 6.00 Build 0)  -->
<svg version="1.1" id="Layer_1" xmlns="http://www.w3.org/2000/svg" xmlns:xlink="http://www.w3.org/1999/xlink" x="0px" y="0px"
	 viewBox="0 0 229.6 129.2" style="enable-background:new 0 0 229.6 129.2;" xml:space="preserve">
<style type="text/css">
	.st0{fill:none;stroke:#AEC9B9;stroke-width:0.5987;stroke-miterlimit:10;}
	.st1{fill:none;stroke:#AEC9B9;stroke-width:0.2817;stroke-miterlimit:10;}
	.st2{fill:none;stroke:#AEC9B9;stroke-width:0.2993;stroke-miterlimit:10;}
	.st3{fill:none;stroke:#AEC9B9;stroke-width:0.3207;stroke-miterlimit:10;}
	.st4{fill:none;stroke:#AEC9B9;stroke-width:0.3255;stroke-miterlimit:10;}
	.st5{fill:none;stroke:#AEC9B9;stroke-width:0.3373;stroke-miterlimit:10;}
	.st6{fill:none;stroke:#AEC9B9;stroke-width:0.3293;stroke-miterlimit:10;}
	.st7{fill:none;stroke:#AEC9B9;stroke-width:0.3357;stroke-miterlimit:10;}
	.st8{fill:none;stroke:#AEC9B9;stroke-width:0.3346;stroke-miterlimit:10;}
	.st9{fill:none;stroke:#AEC9B9;stroke-width:0.3175;stroke-miterlimit:10;}
	.st10{fill:none;stroke:#AEC9B9;stroke-width:0.3154;stroke-miterlimit:10;}
	.st11{fill:none;stroke:#AEC9B9;stroke-width:0.3111;stroke-miterlimit:10;}
	.st12{fill:none;stroke:#AEC9B9;stroke-width:0.3164;stroke-miterlimit:10;}
	.st13{fill:none;stroke:#AEC9B9;stroke-width:0.3122;stroke-miterlimit:10;}
	.st14{fill:none;stroke:#AEC9B9;stroke-width:0.2769;stroke-miterlimit:10;}
	.st15{fill:none;stroke:#AEC9B9;stroke-width:0.2774;stroke-miterlimit:10;}
	.st16{fill:none;stroke:#AEC9B9;stroke-width:0.2785;stroke-miterlimit:10;}
	.st17{fill:none;stroke:#AEC9B9;stroke-width:0.278;stroke-miterlimit:10;}
	.st18{fill:none;stroke:#AEC9B9;stroke-width:0.279;stroke-miterlimit:10;}
	.st19{fill:none;stroke:#AEC9B9;stroke-width:0.2961;stroke-miterlimit:10;}
	.st20{fill:none;stroke:#AEC9B9;stroke-width:0.3223;stroke-miterlimit:10;}
	.st21{fill:none;stroke:#AEC9B9;stroke-width:0.3336;stroke-miterlimit:10;}
	.st22{fill:none;stroke:#AEC9B9;stroke-width:0.3261;stroke-miterlimit:10;}
	.st23{fill:none;stroke:#AEC9B9;stroke-width:0.3325;stroke-miterlimit:10;}
	.st24{fill:none;stroke:#AEC9B9;stroke-width:0.3309;stroke-miterlimit:10;}
	.st25{fill:none;stroke:#AEC9B9;stroke-width:0.3143;stroke-miterlimit:10;}
	.st26{fill:none;stroke:#AEC9B9;stroke-width:0.3079;stroke-miterlimit:10;}
	.st27{fill:none;stroke:#AEC9B9;stroke-width:0.3132;stroke-miterlimit:10;}
	.st28{fill:none;stroke:#AEC9B9;stroke-width:0.309;stroke-miterlimit:10;}
	.st29{fill:none;stroke:#AEC9B9;stroke-width:0.2742;stroke-miterlimit:10;}
	.st30{fill:none;stroke:#AEC9B9;stroke-width:0.2748;stroke-miterlimit:10;}
	.st31{fill:none;stroke:#AEC9B9;stroke-width:0.2758;stroke-miterlimit:10;}
	.st32{fill:none;stroke:#AEC9B9;stroke-width:0.2753;stroke-miterlimit:10;}
	.st33{fill:none;stroke:#AEC9B9;stroke-width:0.2764;stroke-miterlimit:10;}
	.st34{fill:none;stroke:#AEC9B9;stroke-width:0.5981;stroke-miterlimit:10;}
	.st35{fill:none;stroke:#AEC9B9;stroke-width:0.5949;stroke-miterlimit:10;}
	.st36{fill:none;stroke:#AEC9B9;stroke-width:0.5965;stroke-miterlimit:10;}
	.st37{fill:none;stroke:#AEC9B9;stroke-width:0.588;stroke-miterlimit:10;}
	.st38{fill:none;stroke:#AEC9B9;stroke-width:0.5826;stroke-miterlimit:10;}
	.st39{fill:none;stroke:#AEC9B9;stroke-width:0.5896;stroke-miterlimit:10;}
	.st40{fill:none;stroke:#AEC9B9;stroke-width:0.5885;stroke-miterlimit:10;}
	.st41{fill:none;stroke:#AEC9B9;stroke-width:0.5907;stroke-miterlimit:10;}
	.st42{fill:none;stroke:#AEC9B9;stroke-width:0.5901;stroke-miterlimit:10;}
	.st43{fill:none;stroke:#AEC9B9;stroke-width:0.581;stroke-miterlimit:10;}
	.st44{fill:none;stroke:#AEC9B9;stroke-width:0.5832;stroke-miterlimit:10;}
	.st45{fill:none;stroke:#AEC9B9;stroke-width:0.5623;stroke-miterlimit:10;}
	.st46{fill:none;stroke:#AEC9B9;stroke-width:0.5265;stroke-miterlimit:10;}
	.st47{fill:#FFFFFF;}
	.st48{fill:none;stroke:#AEC9B9;stroke-width:0.6014;stroke-miterlimit:10;}
	.st49{fill:none;stroke:#AEC9B9;stroke-width:0.5725;stroke-miterlimit:10;}
	.st50{fill:none;stroke:#AEC9B9;stroke-width:0.5393;stroke-miterlimit:10;}
	.st51{fill:none;stroke:#AEC9B9;stroke-width:0.2967;stroke-miterlimit:10;}
	.st52{fill:none;stroke:#AEC9B9;stroke-width:0.302;stroke-miterlimit:10;}
	.st53{fill:none;stroke:#AEC9B9;stroke-width:0.3068;stroke-miterlimit:10;}
	.st54{fill:none;stroke:#AEC9B9;stroke-width:0.294;stroke-miterlimit:10;}
	.st55{fill:none;stroke:#53816B;stroke-width:0.3336;stroke-miterlimit:10;}
	.st56{fill:none;stroke:#53816B;stroke-width:0.294;stroke-miterlimit:10;}
	.st57{fill:none;stroke:#AEC9B9;stroke-width:0.2945;stroke-miterlimit:10;}
	.st58{fill:none;stroke:#AEC9B9;stroke-width:0.2999;stroke-miterlimit:10;}
	.st59{fill:none;stroke:#AEC9B9;stroke-width:0.3047;stroke-miterlimit:10;}
	.st60{fill:none;stroke:#AEC9B9;stroke-width:0.2924;stroke-miterlimit:10;}
	.st61{fill:none;stroke:#AEC9B9;stroke-width:0.2197;stroke-miterlimit:10;}
	.st62{fill:none;stroke:#AEC9B9;stroke-width:0.2192;stroke-miterlimit:10;}
	.st63{fill:none;stroke:#AEC9B9;stroke-width:0.5944;stroke-miterlimit:10;}
	.st64{fill:none;stroke:#AEC9B9;stroke-width:0.5206;stroke-miterlimit:10;}
	.st65{fill:none;stroke:#AEC9B9;stroke-width:0.5292;stroke-miterlimit:10;}
	.st66{fill:none;stroke:#AEC9B9;stroke-width:0.5992;stroke-miterlimit:10;}
	.st67{fill:none;stroke:#AEC9B9;stroke-width:0.1855;stroke-miterlimit:10;}
	.st68{fill:none;stroke:#AEC9B9;stroke-width:0.1796;stroke-miterlimit:10;}
	.st69{fill:none;stroke:#AEC9B9;stroke-width:0.186;stroke-miterlimit:10;}
	.st70{fill:none;stroke:#AEC9B9;stroke-width:0.3378;stroke-miterlimit:10;}
</style>
<g>
	<path class="st0" d="M206.9,33c0,0,12.5-2.7,32.2-2.7c19.2,0,30.2,2.7,30.2,2.7 M132,33.2c0,0,12.5-2.7,32.2-2.7
		c19.2,0,30.2,2.7,30.2,2.7 M56.4,33.2c0,0,12.7-2.7,32.7-2.7c19.5,0,30.8,2.7,30.8,2.7 M206.9,65.4c0,0,12.5-2,32.2-2
		c19.2,0,30.2,2,30.2,2 M132,65.6c0,0,12.5-2,32.2-2c19.2,0,30.2,2,30.2,2 M56.4,65.6c0,0,12.7-2,32.7-2c19.5,0,30.8,2,30.8,2
		 M206.5,93.3c0,0,11.5-1.1,31.1-1.1c19.6,0,31.9,1.1,31.9,1.1 M131.7,93.5c0,0,11.5-1.1,31.1-1.1s31.9,1.1,31.9,1.1 M56.1,93.5
		c0,0,11.7-1.1,31.7-1.1s32.4,1.1,32.4,1.1 M206.5,120.3c0,0,11.5-1.1,31.1-1.1c19.6,0,31.9,1.1,31.9,1.1 M131.7,120.6
		c0,0,11.5-1.1,31.1-1.1s31.9,1.1,31.9,1.1 M56.1,120.6c0,0,11.7-1.1,31.7-1.1s32.4,1.1,32.4,1.1 M-25.9,125.4h59.2 M-25.9,94.1
		h59.2 M-25.9,63h59.2 M-25.9,31.7h59.2"/>
	<path class="st1" d="M56.4,86.2c0,0,12.7-1.5,32.7-1.5c19.5,0,30.8,1.5,30.8,1.5 M56.4,80.2c0,0,12.7-1.5,32.7-1.5
		c19.5,0,30.8,1.5,30.8,1.5 M56.4,114.8c0,0,12.7-1.5,32.7-1.5c19.5,0,30.8,1.5,30.8,1.5 M56.4,109.7c0,0,12.7-1.5,32.7-1.5
		c19.5,0,30.8,1.5,30.8,1.5"/>
	<path class="st2" d="M56.4,18.9c0,0,12.7-2.7,32.7-2.7c19.5,0,30.8,2.7,30.8,2.7 M56.4,25.3c0,0,12.7-2.7,32.7-2.7
		c19.5,0,30.8,2.7,30.8,2.7 M56.4,56.7c0,0,12.7-1.7,32.7-1.7c19.5,0,30.8,1.7,30.8,1.7 M56.4,50c0,0,12.7-1.7,32.7-1.7
		c19.5,0,30.8,1.7,30.8,1.7"/>
	<path class="st3" d="M113.6,11.7V30 M99.8,10.3v18.3 M74.9,10.7V29 M61.9,12.1v18.3"/>
	<line class="st4" x1="87.4" y1="10.1" x2="87.4" y2="29"/>
	<line class="st5" x1="61.9" y1="43" x2="61.9" y2="63.2"/>
	<path class="st6" d="M99.8,42v19.3 M74.9,42.3v19.3"/>
	<line class="st7" x1="113.7" y1="43" x2="113.7" y2="63"/>
	<line class="st8" x1="87.4" y1="41.7" x2="87.4" y2="61.6"/>
	<line class="st9" x1="61.9" y1="74" x2="61.9" y2="91.9"/>
	<line class="st10" x1="74.9" y1="73.4" x2="74.9" y2="91.1"/>
	<line class="st11" x1="99.8" y1="73.7" x2="99.8" y2="90.9"/>
	<line class="st12" x1="113.7" y1="74" x2="113.7" y2="91.8"/>
	<line class="st13" x1="87.4" y1="73.5" x2="87.4" y2="90.8"/>
	<line class="st14" x1="61.9" y1="105.2" x2="61.9" y2="118.8"/>
	<line class="st15" x1="74.9" y1="104.5" x2="74.9" y2="118.2"/>
	<line class="st16" x1="99.8" y1="104.2" x2="99.8" y2="118"/>
	<line class="st17" x1="113.7" y1="105" x2="113.7" y2="118.7"/>
	<line class="st18" x1="87.4" y1="104.1" x2="87.4" y2="117.9"/>
	<path class="st18" d="M132.2,86.2c0,0,12.4-1.5,32-1.5c19.1,0,30.1,1.5,30.1,1.5 M132.2,80.2c0,0,12.4-1.5,32-1.5
		c19.1,0,30.1,1.5,30.1,1.5 M132.2,114.8c0,0,12.4-1.5,32-1.5c19.1,0,30.1,1.5,30.1,1.5 M132.2,109.7c0,0,12.4-1.5,32-1.5
		c19.1,0,30.1,1.5,30.1,1.5"/>
	<path class="st19" d="M132.2,18.9c0,0,12.4-2.7,32.1-2.7c19.1,0,30.1,2.7,30.1,2.7 M132.2,25.3c0,0,12.4-2.7,32.1-2.7
		c19.1,0,30.1,2.7,30.1,2.7 M132.2,56.7c0,0,12.4-1.7,32.1-1.7c19.1,0,30.1,1.7,30.1,1.7 M132.2,50c0,0,12.4-1.7,32.1-1.7
		c19.1,0,30.1,1.7,30.1,1.7"/>
	<path class="st9" d="M188.3,11.7V30 M174.8,10.3v18.3 M150.4,10.7V29 M137.6,12.1v18.3"/>
	<line class="st20" x1="162.6" y1="10.1" x2="162.6" y2="29"/>
	<line class="st21" x1="137.6" y1="44" x2="137.6" y2="62.6"/>
	<path class="st22" d="M174.8,42v19.3 M150.4,42.3v19.3"/>
	<line class="st23" x1="188.4" y1="43" x2="188.4" y2="63"/>
	<line class="st24" x1="162.6" y1="41.7" x2="162.6" y2="61.6"/>
	<line class="st25" x1="137.6" y1="74" x2="137.6" y2="91.9"/>
	<line class="st13" x1="150.4" y1="74.4" x2="150.4" y2="90.7"/>
	<line class="st26" x1="174.8" y1="73.7" x2="174.8" y2="90.9"/>
	<line class="st27" x1="188.4" y1="74" x2="188.4" y2="91.8"/>
	<line class="st28" x1="162.6" y1="73.5" x2="162.6" y2="90.8"/>
	<line class="st29" x1="137.6" y1="106" x2="137.6" y2="118.6"/>
	<line class="st30" x1="150.4" y1="104.5" x2="150.4" y2="118.2"/>
	<line class="st31" x1="174.8" y1="104.2" x2="174.8" y2="118"/>
	<line class="st32" x1="188.4" y1="105" x2="188.4" y2="118.7"/>
	<line class="st33" x1="162.6" y1="104.1" x2="162.6" y2="117.9"/>
	<path class="st18" d="M207.1,86.2c0,0,12.4-1.5,32-1.5c19.1,0,30.1,1.5,30.1,1.5 M207.1,80.2c0,0,12.4-1.5,32-1.5
		c19.1,0,30.1,1.5,30.1,1.5 M207.1,114.8c0,0,12.4-1.5,32-1.5c19.1,0,30.1,1.5,30.1,1.5 M207.1,109.7c0,0,12.4-1.5,32-1.5
		c19.1,0,30.1,1.5,30.1,1.5"/>
	<path class="st19" d="M207.1,18.9c0,0,12.4-2.7,32.1-2.7c19.1,0,30.1,2.7,30.1,2.7 M207.1,25.3c0,0,12.4-2.7,32.1-2.7
		c19.1,0,30.1,2.7,30.1,2.7 M207.1,56.7c0,0,12.4-1.7,32.1-1.7c19.1,0,30.1,1.7,30.1,1.7 M207.1,50c0,0,12.4-1.7,32.1-1.7
		c19.1,0,30.1,1.7,30.1,1.7"/>
	<path class="st9" d="M263.2,11.7V30 M249.7,10.3v18.3 M225.2,10.7V29 M212.5,12.1v18.3"/>
	<line class="st20" x1="237.5" y1="10.1" x2="237.5" y2="29"/>
	<line class="st21" x1="212.5" y1="43" x2="212.5" y2="63.2"/>
	<path class="st22" d="M249.7,42v19.3 M225.2,42.3v19.3"/>
	<line class="st23" x1="263.3" y1="43" x2="263.3" y2="63"/>
	<line class="st24" x1="237.5" y1="41.7" x2="237.5" y2="61.6"/>
	<line class="st25" x1="212.5" y1="74" x2="212.5" y2="91.9"/>
	<line class="st13" x1="225.3" y1="73.4" x2="225.3" y2="91.1"/>
	<line class="st26" x1="249.7" y1="73.7" x2="249.7" y2="90.9"/>
	<line class="st27" x1="263.3" y1="74.4" x2="263.3" y2="91.6"/>
	<line class="st28" x1="237.5" y1="73.5" x2="237.5" y2="90.8"/>
	<line class="st29" x1="212.5" y1="105.2" x2="212.5" y2="118.8"/>
	<line class="st30" x1="225.3" y1="104.5" x2="225.3" y2="118.2"/>
	<line class="st31" x1="249.7" y1="104.2" x2="249.7" y2="118"/>
	<line class="st32" x1="263.3" y1="105" x2="263.3" y2="118.7"/>
	<line class="st33" x1="237.5" y1="104.1" x2="237.5" y2="117.9"/>
	<path class="st0" d="M51.6-55.4V-65h-70.8v3.6h-6v7.8H-30v5.1h-3.6v32.6h-6.2V184h3.6h318.5V8.4 M282.3-4.6h6.2v-11.1h-13.2v-14.1
		l-8.6-6.9h-9.8v-18.8H127v-27.3h-10.3v-28.6h-61v56.1"/>
	<path class="st34" d="M-39.8-12.6h328.3 M-39.8-15.8h328.3"/>
	<path class="st0" d="M206.7,8.3c0,0,12.5-2.7,32.2-2.7c19.2,0,30.3,2.7,30.3,2.7 M206.7,12.8c0,0,12.5-2.7,32.2-2.7
		c19.2,0,30.3,2.7,30.3,2.7 M131.7,8.3c0,0,12.5-2.7,32.3-2.7c19.3,0,30.4,2.7,30.4,2.7 M131.7,12.8c0,0,12.5-2.7,32.3-2.7
		c19.3,0,30.4,2.7,30.4,2.7 M135.5,181H193 M135.2,178.3h56.3 M213.5,166.9H263 M213.5,168.3H263 M213.5,169.7H263 M213.5,171.1H263
		 M63.3,166.9h49.5 M63.3,168.3h49.5 M63.3,169.7h49.5 M63.3,171.1h49.5 M135.6,175.6H190 M56.4,63.5c0,0,12.7-2,32.7-2
		c19.5,0,30.8,2,30.8,2 M56.4,74.8c0,0,12.7-1.2,32.7-1.2c19.5,0,30.8,1.2,30.8,1.2 M56.4,31.3c0,0,12.7-2.7,32.7-2.7
		c19.5,0,30.8,2.7,30.8,2.7 M56.4,43.5c0,0,12.7-1.7,32.7-1.7c19.5,0,30.8,1.7,30.8,1.7 M56.4,8.3c0,0,12.7-2.7,32.7-2.7
		c19.5,0,30.8,2.7,30.8,2.7 M56.4,12.8c0,0,12.7-2.7,32.7-2.7c19.5,0,30.8,2.7,30.8,2.7 M269.4-4.5V184 M207,7.9V184 M119.9,8.3V184
		 M132.1-4.5V184 M44.3,8V184 M56.2-4.5V184 M56.1,92c0,0,11.7-1.1,31.7-1.1c20,0,32.4,1.1,32.4,1.1 M56.1,105.4
		c0,0,11.7-1.1,31.7-1.1c20,0,32.4,1.1,32.4,1.1 M56.1,119c0,0,11.7-1.1,31.7-1.1c20,0,32.4,1.1,32.4,1.1 M56.1,132.2
		c0,0,11.7-1.1,31.7-1.1c20,0,32.4,1.1,32.4,1.1 M-25.3,138.6h58.6 M13,174.2h31.3 M-39,174.2h33.9 M-25.9,132.8h59.2 M-25.9,123.9
		h59.2 M-25.9,105.1h59.2 M-25.9,92.6h59.2 M-25.9,74h59.2 M-25.9,61.5h59.2 M-25.9,42.7h59.2 M-25.7-2.8h58.9 M-25.7-1h58.9
		 M-25.7,0.8h58.9 M-25.7,4.5h58.9 M-25.7,2.7h58.9 M-25.7,6.5h58.9 M-25.9,11.9h59.2 M-25.9,30.2h59.2 M40.7-16v11.7 M51.5-65.2
		v49.6 M-39.8-4.6h328.5 M51.6-55.6h75.6 M51.8-51.6h204.9 M51.5-26.5h224.1 M51.4-29.7h224.1 M51.4-36.8h205.8"/>
	<path class="st35" d="M56.4,5c0,0,12.4-2.8,32-2.8c19.1,0,31.4,2.8,31.4,2.8"/>
	<path class="st36" d="M56.4,6.6c0,0,12.5-2.8,32.2-2.8c19.2,0,31.4,2.9,31.4,2.9"/>
	<path class="st35" d="M56.4,1.8c0,0,12.4-2.7,32-2.7c19.1,0,30.7,2.8,30.7,2.8 M56.4,0.2c0,0,12.4-2.7,32-2.7
		c19.1,0,30.1,2.7,30.1,2.7 M56.4-1.4c0,0,12.4-2.7,32-2.7c19.1,0,29.5,2.6,29.5,2.6 M56.4,3.4c0,0,12.4-2.7,32-2.7
		c19.1,0,31.2,2.9,31.2,2.9"/>
	<path class="st36" d="M131.9,1.8c0,0,12.5-2.7,32.1-2.7c19.2,0,30.2,2.7,30.2,2.7 M131.9,0.2c0,0,12.5-2.7,32.1-2.7
		c19.2,0,30.2,2.7,30.2,2.7 M131.9-1.4c0,0,12.5-2.7,32.1-2.7c19.2,0,30.2,2.7,30.2,2.7 M131.9,3.4c0,0,12.5-2.7,32.1-2.7
		c19.2,0,30.2,2.7,30.2,2.7 M132.2,6.6c0,0,12.5-2.7,32.1-2.7c19.2,0,30.2,2.7,30.2,2.7 M131.9,5c0,0,12.5-2.7,32.1-2.7
		c19.2,0,30.2,2.7,30.2,2.7"/>
	<path class="st37" d="M207.3,4.9c0,0,13.6-2.7,32.7-2.7c18.6,0,29.4,2.8,29.4,2.8"/>
	<path class="st36" d="M207.3,6.6c0,0,12.5-2.8,32.1-2.8c19.2,0,30.2,2.8,30.2,2.8"/>
	<path class="st37" d="M207.9,1.9c0,0,13-2.9,32.1-2.9c18.6,0,29.4,2.7,29.4,2.7 M208.4,0.3c0,0,12.4-2.8,31.5-2.8
		c18.6,0,29.4,2.7,29.4,2.7 M209-1.4c0,0,11.8-2.7,30.9-2.7c18.6,0,29.4,2.7,29.4,2.7 M207.5,3.5c0,0,13.4-2.8,32.5-2.8
		c18.6,0,29.4,2.7,29.4,2.7"/>
	<path class="st0" d="M111.2-66.5h-16v11h16V-66.5z M86-66.5H70v11h16V-66.5z M111.2-100.7h-16v17.7h16V-100.7z M86-100.7H70v17.7
		h16V-100.7z M2.3-16v-17h15.1v17 M231.2-36.7v-8.8h7.5v8.8 M220.3-36.7v-8.8h7.5v8.8 M209.3-36.7v-8.8h7.5v8.8 M164.8-36.7v-8.8
		h7.5v8.8 M153.8-36.7v-8.8h7.5v8.8 M142.8-36.7v-8.8h7.5v8.8 M99-36.7v-8.8h7.5v8.8 M88-36.7v-8.8h7.5v8.8 M77-36.7v-8.8h7.5v8.8
		 M-16.4-16v-17h15.1v17"/>
	<path class="st38" d="M-2.3,183.9V140 M-5.4,183.9V140h18.5v43.9"/>
	<polyline class="st39" points="139.1,139.2 139.1,172.5 184.9,172.5 188.5,172.5 188.5,139.2 	"/>
	<line class="st0" x1="194.5" y1="183.4" x2="194.5" y2="-4.5"/>
	<line class="st40" x1="184.9" y1="139.3" x2="184.9" y2="172.5"/>
	<line class="st41" x1="135.6" y1="142.7" x2="135.6" y2="184"/>
	<polyline class="st39" points="63.5,139.2 63.5,172.5 112.9,172.5 112.9,139.2 	"/>
	<polyline class="st42" points="213.3,139.1 213.3,172.5 262.7,172.5 262.7,139.1 	"/>
	<polyline class="st0" points="-25,138.6 -25,163.2 -12.4,163.2 -12.4,140 	"/>
	<line class="st43" x1="-23.1" y1="140" x2="-23.1" y2="163.2"/>
	<line class="st44" x1="22.4" y1="139.9" x2="22.4" y2="163.2"/>
	<path class="st0" d="M254.3,158.8h-6.7v1.5h6.7V158.8z M240.9,158.8h-6.7v1.5h6.7V158.8z M227.5,158.8h-6.7v1.5h6.7V158.8z
		 M106.3,158.8h-6.7v1.5h6.7V158.8z M92.9,158.8h-6.7v1.5h6.7V158.8z M79.5,158.8h-6.7v1.5h6.7V158.8z M106.3,144.3h-6.7v14.7h6.7
		V144.3z M92.9,144.3h-6.7v14.7h6.7V144.3z M79.5,144.3h-6.7v14.7h6.7V144.3z M32.9,179.7H20.5v4.2h12.4V179.7z M-12.6,179.7H-25
		v4.2h12.4V179.7z M20.5,140.1v23.1h12.4v-24.6"/>
	<path class="st45" d="M254.2,178h-6.7v2.6h6.7V178z M240.8,178h-6.7v2.6h6.7V178z M227.4,178h-6.7v2.6h6.7V178z M106.3,178h-6.7
		v2.6h6.7V178z M92.9,178h-6.7v2.6h6.7V178z M79.5,178h-6.7v2.6h6.7V178z"/>
	<path class="st0" d="M20.7-16.1v-17h15.1v17 M254.4,144.3h-6.7V159h6.7V144.3z M241,144.3h-6.7V159h6.7V144.3z M227.6,144.3h-6.7
		V159h6.7V144.3z"/>
	<path class="st2" d="M276.8,14.9H275v101.8h1.8V14.9z M278.1,13.5h-4.3v104.6h4.3V13.5z M279.5,12h-7.2v107.7h7.2V12z M201.4,14.9
		h-1.8v101.8h1.8V14.9z M202.7,13.5h-4.3v104.6h4.3V13.5z M204.1,12h-7.2v107.7h7.2V12z M127.3,14.9h-1.8v101.8h1.8V14.9z
		 M128.5,13.5h-4.3v104.6h4.3V13.5z M130,12h-7.2v107.7h7.2V12z M50.9,14.9h-1.8v101.8h1.8V14.9z M52.2,13.5h-4.3v104.6h4.3V13.5z
		 M53.6,12h-7.2v107.7h7.2V12z"/>
	<path class="st46" d="M27.5-53.3V-57h15.1v3.7 M9-53.3V-57h15.1v3.7 M-9.7-53.3V-57H5.4v3.7"/>
	<path class="st0" d="M32.9-4.3V133 M-25.6-4.4V133 M51.5-61.4h-76.7 M-29.8-53.6h81.2 M-33.6-48.5h84.8"/>
	<rect x="-15.7" y="6.5" class="st47" width="2.5" height="126.2"/>
	<rect x="-15.7" y="6.5" class="st0" width="2.5" height="126.2"/>
	<rect x="-3.2" y="6.5" class="st47" width="2.5" height="126.2"/>
	<rect x="-3.2" y="6.5" class="st0" width="2.5" height="126.2"/>
	<rect x="9.2" y="6.5" class="st47" width="2.5" height="126.2"/>
	<rect x="9.2" y="6.5" class="st0" width="2.5" height="126.2"/>
	<rect x="21.6" y="6.5" class="st47" width="2.5" height="126.2"/>
	<rect x="21.6" y="6.5" class="st0" width="2.5" height="126.2"/>
	<polygon class="st47" points="67.4,131.6 67.4,6.8 69.9,6.6 69.9,131.6 	"/>
	<polygon class="st0" points="67.4,131.6 67.4,6.8 69.9,6.6 69.9,131.6 	"/>
	<rect x="79.9" y="5.8" class="st47" width="2.5" height="125.4"/>
	<rect x="79.9" y="5.8" class="st0" width="2.5" height="125.4"/>
	<rect x="92.3" y="5.8" class="st47" width="2.5" height="125.4"/>
	<rect x="92.3" y="5.8" class="st0" width="2.5" height="125.4"/>
	<polygon class="st47" points="104.7,131.5 104.7,6.2 107.2,6.5 107.2,131.5 	"/>
	<polygon class="st0" points="104.7,131.5 104.7,6.2 107.2,6.5 107.2,131.5 	"/>
	<path class="st0" d="M132,63.5c0,0,12.5-2,32.2-2c19.2,0,30.3,2,30.3,2 M132,74.8c0,0,12.5-1.2,32.2-1.2c19.2,0,30.3,1.2,30.3,1.2
		 M132,31.3c0,0,12.5-2.7,32.2-2.7c19.2,0,30.3,2.7,30.3,2.7 M132,43.5c0,0,12.5-1.7,32.2-1.7c19.2,0,30.3,1.7,30.3,1.7 M131.7,92
		c0,0,11.5-1.1,31.2-1.1c19.7,0,31.9,1.1,31.9,1.1 M131.7,105.4c0,0,11.5-1.1,31.2-1.1c19.7,0,31.9,1.1,31.9,1.1 M131.7,119.1
		c0,0,11.5-1.1,31.2-1.1c19.7,0,31.9,1.1,31.9,1.1 M131.7,132.3c0,0,11.5-1.1,31.2-1.1c19.7,0,31.9,1.1,31.9,1.1"/>
	<polygon class="st47" points="142.8,131.6 142.8,6.8 145.3,6.6 145.3,131.6 	"/>
	<polygon class="st0" points="142.8,131.6 142.8,6.8 145.3,6.6 145.3,131.6 	"/>
	<rect x="155.1" y="5.8" class="st47" width="2.5" height="125.4"/>
	<rect x="155.1" y="5.8" class="st0" width="2.5" height="125.4"/>
	<rect x="167.3" y="5.8" class="st47" width="2.5" height="125.4"/>
	<rect x="167.3" y="5.8" class="st0" width="2.5" height="125.4"/>
	<polygon class="st47" points="179.5,131.5 179.5,6.2 182,6.5 182,131.5 	"/>
	<polygon class="st0" points="179.5,131.5 179.5,6.2 182,6.5 182,131.5 	"/>
	<path class="st0" d="M206.8,138.4c0,0,11.5-1.1,31.2-1.1c19.7,0,31.9,1.1,31.9,1.1 M206.5,132c0,0,11.5-1.1,31.2-1.1
		c19.7,0,31.9,1.1,31.9,1.1"/>
	<path class="st48" d="M56.2,138.4c0,0,11.6-1.2,31.4-1.2c19.8,0,32.1,1.2,32.1,1.2"/>
	<path class="st0" d="M206.9,139.7c0,0,11.5-1.1,31.1-1.1s31.9,1.1,31.9,1.1 M-23.4,140h56.7 M131.9,138.4c0,0,11.5-1.1,31.1-1.1
		c19.6,0,31.9,1.1,31.9,1.1"/>
	<path class="st48" d="M56.2,139.8c0,0,11.6-1.2,31.4-1.2c19.8,0,32.1,1.2,32.1,1.2"/>
	<path class="st0" d="M206.9,63.3c0,0,12.5-2,32.2-2c19.2,0,30.3,2,30.3,2 M206.9,74.6c0,0,12.5-1.2,32.2-1.2
		c19.2,0,30.3,1.2,30.3,1.2 M206.9,31.1c0,0,12.5-2.7,32.2-2.7c19.2,0,30.3,2.7,30.3,2.7 M206.9,43.3c0,0,12.5-1.7,32.2-1.7
		c19.2,0,30.3,1.7,30.3,1.7 M206.5,91.8c0,0,11.5-1.1,31.2-1.1c19.7,0,31.9,1.1,31.9,1.1 M206.5,105.2c0,0,11.5-1.1,31.2-1.1
		c19.7,0,31.9,1.1,31.9,1.1 M206.5,118.8c0,0,11.5-1.1,31.2-1.1c19.7,0,31.9,1.1,31.9,1.1 M131.9,139.8c0,0,11.5-1.1,31.2-1.1
		c19.7,0,31.9,1.1,31.9,1.1"/>
	<polygon class="st47" points="217.7,131.4 217.7,6.5 220.2,6.3 220.2,131.4 	"/>
	<polygon class="st0" points="217.7,131.4 217.7,6.5 220.2,6.3 220.2,131.4 	"/>
	<rect x="229.9" y="5.6" class="st47" width="2.5" height="125.4"/>
	<rect x="229.9" y="5.6" class="st0" width="2.5" height="125.4"/>
	<rect x="242.2" y="5.5" class="st47" width="2.5" height="125.4"/>
	<rect x="242.2" y="5.5" class="st0" width="2.5" height="125.4"/>
	<polygon class="st47" points="254.4,131.3 254.4,6 256.9,6.3 256.9,131.3 	"/>
	<polygon class="st0" points="254.4,131.3 254.4,6 256.9,6.3 256.9,131.3 	"/>
	<path class="st49" d="M139.3,149.7h45.6 M139.3,147.2h45.6"/>
	<path class="st50" d="M-2,170.9h15 M-2,155.7h15"/>
	<line class="st40" x1="151.4" y1="138.6" x2="151.4" y2="172.5"/>
	<line class="st39" x1="3.7" y1="139.9" x2="3.7" y2="184"/>
	<path class="st0" d="M103.4-66.7v11 M78.1-66.7v11 M103.4-100.5v17.3 M78.1-100.5v17.3 M28.1-33.2v17.3 M10.1-33.2v17.3 M-8.9-33.2
		v17.3"/>
	<path class="st40" d="M175.9,138.5v33.9 M163.6,138.5v33.9"/>
	<path class="st51" d="M-25.1,111.5h9.3 M-25.1,117.8h9.3 M-20.5,105.1v19"/>
	<path class="st52" d="M-13,111.5h9.6 M-13,117.8h9.6 M-8.2,105.1v19"/>
	<path class="st53" d="M-0.9,111.5H9 M-0.9,117.8H9 M4.1,105.1v19"/>
	<path class="st52" d="M11.7,111.5h9.6 M11.7,117.8h9.6 M16.5,105.1v19"/>
	<path class="st54" d="M77.2-41h7.3 M23.8,111.5H33 M23.8,117.8H33 M28.4,105.1v19"/>
	<line class="st55" x1="80.7" y1="-37" x2="80.7" y2="-45.7"/>
	<line class="st56" x1="88.1" y1="-41" x2="95.4" y2="-41"/>
	<line class="st55" x1="91.6" y1="-37" x2="91.6" y2="-45.7"/>
	<line class="st56" x1="99.2" y1="-41" x2="106.5" y2="-41"/>
	<line class="st55" x1="102.7" y1="-37" x2="102.7" y2="-45.7"/>
	<line class="st56" x1="142.7" y1="-41" x2="150" y2="-41"/>
	<line class="st55" x1="146.2" y1="-37.4" x2="146.2" y2="-45.4"/>
	<line class="st56" x1="153.7" y1="-41" x2="160.9" y2="-41"/>
	<line class="st55" x1="157.1" y1="-37.4" x2="157.1" y2="-45.4"/>
	<line class="st56" x1="164.7" y1="-41" x2="172" y2="-41"/>
	<line class="st55" x1="168.2" y1="-37" x2="168.2" y2="-45.7"/>
	<line class="st56" x1="209.5" y1="-40.7" x2="216.8" y2="-40.7"/>
	<line class="st55" x1="213" y1="-36.6" x2="213" y2="-45.4"/>
	<line class="st56" x1="220.4" y1="-40.7" x2="227.7" y2="-40.7"/>
	<line class="st55" x1="223.9" y1="-36.6" x2="223.9" y2="-45.4"/>
	<line class="st56" x1="231.5" y1="-40.7" x2="238.8" y2="-40.7"/>
	<line class="st55" x1="235" y1="-36.6" x2="235" y2="-45.4"/>
	<path class="st51" d="M-25.1,80.1h9.3 M-25.1,86.4h9.3 M-20.5,73.7v19"/>
	<path class="st52" d="M-13,80.1h9.6 M-13,86.4h9.6 M-8.2,73.7v19"/>
	<path class="st53" d="M-0.9,80.1H9 M-0.9,86.4H9 M4.1,73.7v19"/>
	<path class="st52" d="M11.7,80.1h9.6 M11.7,86.4h9.6 M16.5,73.7v19"/>
	<path class="st54" d="M23.8,80.1H33 M23.8,86.4H33 M28.4,73.7v19"/>
	<path class="st57" d="M-25.1,49h9.3 M-25.1,55.3h9.3 M-20.5,42.7v18.7"/>
	<path class="st58" d="M-13,49h9.6 M-13,55.3h9.6 M-8.2,42.7v18.7"/>
	<path class="st59" d="M-0.9,49H9 M-0.9,55.3H9 M4.1,42.7v18.7"/>
	<path class="st58" d="M11.7,49h9.6 M11.7,55.3h9.6 M16.5,42.7v18.7"/>
	<path class="st60" d="M23.8,49H33 M23.8,55.3H33 M28.4,42.7v18.7"/>
	<path class="st57" d="M-25.1,18h9.3 M-25.1,24.2h9.3 M-20.5,11.7v18.7"/>
	<path class="st58" d="M-13,18h9.6 M-13,24.2h9.6 M-8.2,11.7v18.7"/>
	<path class="st53" d="M-0.9,18.1H9 M-0.9,24.4H9 M4.1,11.7v19"/>
	<path class="st58" d="M11.7,18h9.6 M11.7,24.2h9.6 M16.5,11.7v18.7"/>
	<path class="st60" d="M23.8,18H33 M23.8,24.2H33 M28.4,11.7v18.7"/>
	<path class="st61" d="M99.5,149.3h6.6 M99.5,154.1h6.6 M102.8,144.3v14.6 M86.2,149.3h6.6 M86.2,154.1h6.6 M89.5,144.3v14.6
		 M72.9,149.3h6.6 M72.9,154.1h6.6 M76.2,144.3v14.6"/>
	<path class="st62" d="M247.7,149.2h6.6 M247.7,154h6.6 M251,144.3v14.6 M234.4,149.2h6.6 M234.4,154h6.6 M237.7,144.3v14.6
		 M221.1,149.2h6.6 M221.1,154h6.6 M224.3,144.3v14.6"/>
	<path class="st0" d="M285.9-2.7h-13.5v-1.9h13.5V-2.7z M286-2.6c0,0-3.7,3.2-3.7,11 M269.5,8.4c0,0-0.2-8.8,3.2-11 M240.3-33h9.5
		l3.1,3.1h-9.8L240.3-33z M228.8-33h9.5l3.1,3.1h-9.8L228.8-33z M217.7-33h9.5l2.6,3.1H220L217.7-33z M206.7-33h9.5l2.2,3.1h-9.8
		L206.7-33z M195.5-33h9.5l2.2,3.1h-9.8L195.5-33z M174.3-33h9.5l2.2,3.1h-9.8L174.3-33z M163.5-33h9.5l1.7,3.1h-9.8L163.5-33z
		 M152.3-33h9.5l1.1,3.1h-9.8L152.3-33z M141.2-33h9.5l0.7,3.1h-9.8L141.2-33z M130.3-33h9.4l0.5,3.1h-9.8L130.3-33z M110.1-33h10
		l-0.1,3.1h-9.8L110.1-33z M99-33h10l0.1,3.1H98.6L99-33z M87.8-33h10l-0.6,3.1h-9.8L87.8-33z M76.5-33h10L86-29.8H75.5L76.5-33z
		 M65.3-33h10l-1.1,3.1h-9.8L65.3-33z"/>
	<path class="st63" d="M40.9-2.7h12.8v-1.9H40.9V-2.7z M40.8-2.6c0,0,3.5,3.2,3.5,11 M56.5,8.4c0,0,0.1-8.8-3-11"/>
	<path class="st64" d="M117.2-2.6c0,0,2.7,3.2,2.7,11 M132,8.4c0,0,0.1-8.8-2.3-11"/>
	<rect x="117.3" y="-4.6" class="st39" width="12.6" height="1.9"/>
	<path class="st65" d="M209.9-2.7c0,0-2.8,3.2-2.8,11 M194.5,8.3c0,0-0.1-8.8,2.4-11"/>
	<rect x="196.7" y="-4.7" class="st66" width="13" height="1.9"/>
	<path class="st67" d="M115.1-111.4v-6.9 M113.2-111.4v-6.9 M111.4-111.4v-6.9 M109.5-111.4v-6.9 M107.6-111.4v-6.9 M105.8-111.4
		v-6.9 M103.9-111.4v-6.9 M102-111.4v-6.9 M100.2-111.4v-6.9 M98.3-111.4v-6.9 M96.4-111.4v-6.9 M94.6-111.4v-6.9 M92.7-111.4v-6.9
		 M90.8-111.4v-6.9 M88.9-111.4v-6.9 M87.1-111.4v-6.9 M85.2-111.4v-6.9 M83.3-111.4v-6.9 M81.5-111.4v-6.9 M79.6-111.4v-6.9
		 M77.7-111.4v-6.9 M75.9-111.4v-6.9 M74-111.4v-6.9 M72.1-111.4v-6.9 M70.3-111.4v-6.9 M68.4-111.4v-6.9 M66.5-111.4v-6.9
		 M64.7-111.4v-6.9 M62.8-111.4v-6.9 M60.9-111.4v-6.9 M59.1-111.4v-6.9 M57.2-111.4v-6.9 M116.6-111.4H55.7v-6.9h60.9V-111.4z"/>
	<path class="st68" d="M50.1-65.1v-5.6 M48-65.1v-5.6 M46-65.1v-5.6 M43.9-65.1v-5.6 M41.8-65.1v-5.6 M39.7-65.1v-5.6 M37.6-65.1
		v-5.6 M35.6-65.1v-5.6 M33.5-65.1v-5.6 M31.4-65.1v-5.6 M29.3-65.1v-5.6 M27.2-65.1v-5.6 M25.2-65.1v-5.6 M23.1-65.1v-5.6 M21-65.1
		v-5.6 M18.9-65.1v-5.6 M16.9-65.1v-5.6 M14.8-65.1v-5.6 M12.7-65.1v-5.6 M10.6-65.1v-5.6 M8.5-65.1v-5.6 M6.5-65.1v-5.6 M4.4-65.1
		v-5.6 M2.3-65.1v-5.6 M0.2-65.1v-5.6 M-1.9-65.1v-5.6 M-3.9-65.1v-5.6 M-6-65.1v-5.6 M-8.1-65.1v-5.6 M-10.2-65.1v-5.6 M-12.2-65.1
		v-5.6 M-14.3-65.1v-5.6 M51.7-65.1H-16v-5.6h67.8V-65.1z"/>
	<path class="st69" d="M39.4-15.9v-5.6 M37.1-15.9v-5.6 M34.9-15.9v-5.6 M32.7-15.9v-5.6 M30.4-15.9v-5.6 M28.2-15.9v-5.6 M26-15.9
		v-5.6 M23.8-15.9v-5.6 M21.5-15.9v-5.6 M19.3-15.9v-5.6 M17.1-15.9v-5.6 M14.9-15.9v-5.6 M12.6-15.9v-5.6 M10.4-15.9v-5.6
		 M8.2-15.9v-5.6 M6-15.9v-5.6 M3.7-15.9v-5.6 M1.5-15.9v-5.6 M-0.7-15.9v-5.6 M-2.9-15.9v-5.6 M-5.2-15.9v-5.6 M-7.4-15.9v-5.6
		 M-9.6-15.9v-5.6 M-11.8-15.9v-5.6 M-14.1-15.9v-5.6 M-16.3-15.9v-5.6 M-18.5-15.9v-5.6 M-20.7-15.9v-5.6 M-23-15.9v-5.6
		 M-25.2-15.9v-5.6 M-27.4-15.9v-5.6 M-29.6-15.9v-5.6 M41.1-15.9h-72.6v-5.6h72.6V-15.9z"/>
	<path class="st68" d="M48-53.7v-3.4 M45.7-53.7v-3.4 M43.5-53.7v-3.4 M41.2-53.7v-3.4 M39-53.7v-3.4 M36.8-53.7v-3.4 M34.5-53.7
		v-3.4 M32.3-53.7v-3.4 M30-53.7v-3.4 M27.8-53.7v-3.4 M25.6-53.7v-3.4 M23.3-53.7v-3.4 M21.1-53.7v-3.4 M18.8-53.7v-3.4 M16.6-53.7
		v-3.4 M14.4-53.7v-3.4 M12.1-53.7v-3.4 M9.9-53.7v-3.4 M7.6-53.7v-3.4 M5.4-53.7v-3.4 M3.2-53.7v-3.4 M0.9-53.7v-3.4 M-1.3-53.7
		v-3.4 M-3.6-53.7v-3.4 M-5.8-53.7v-3.4 M-8-53.7v-3.4 M-10.3-53.7v-3.4 M-12.5-53.7v-3.4 M-14.8-53.7v-3.4 M-17-53.7v-3.4
		 M-19.2-53.7v-3.4 M-21.5-53.7v-3.4 M49.7-53.7h-73v-3.4h73V-53.7z"/>
	<rect x="51.6" y="-62.6" class="st70" width="202.8" height="7"/>
	<path class="st68" d="M125.1-83.1v-5.3 M123.4-83.1v-5.2 M121.6-83.1v-5.2 M119.9-83.1v-5.2 M118.1-83.1v-5.3 M127-83.1h-10.3v-5.2
		H127V-83.1z M84.6-55.7v-6.9 M82.8-55.7v-6.9 M81-55.7v-6.9 M79.3-55.7v-6.9 M77.5-55.7v-6.9 M75.8-55.7v-6.9 M74-55.7v-6.9
		 M72.3-55.7v-6.9 M70.5-55.7v-6.9 M68.8-55.7v-6.9 M67-55.7v-6.9 M65.3-55.7v-6.9 M63.5-55.7v-6.9 M61.7-55.7v-6.9 M60-55.7v-6.9
		 M58.2-55.7v-6.9 M56.5-55.7v-6.9 M54.7-55.7v-6.9 M53-55.7v-6.9 M51.2-55.7v-6.9 M140.6-55.7v-6.9 M138.9-55.7v-6.9 M137.1-55.7
		v-6.9 M135.4-55.7v-6.9 M133.6-55.7v-6.9 M131.8-55.7v-6.9 M130.1-55.7v-6.9 M128.3-55.7v-6.9 M126.6-55.7v-6.9 M124.8-55.7v-6.9
		 M123.1-55.7v-6.9 M121.3-55.7v-6.9 M119.6-55.7v-6.9 M117.8-55.7v-6.9 M116.1-55.7v-6.9 M114.3-55.7v-6.9 M112.5-55.7v-6.9
		 M110.8-55.7v-6.9 M109-55.7v-6.9 M107.3-55.7v-6.9 M105.5-55.7v-6.9 M103.8-55.7v-6.9 M102-55.7v-6.9 M100.3-55.7v-6.9 M98.5-55.7
		v-6.9 M96.8-55.7v-6.9 M95-55.7v-6.9 M93.2-55.7v-6.9 M91.5-55.7v-6.9 M89.7-55.7v-6.9 M88-55.7v-6.9 M86.2-55.7v-6.9 M196.9-55.7
		v-6.9 M195.2-55.7v-6.9 M193.4-55.7v-6.9 M191.6-55.7v-6.9 M189.9-55.7v-6.9 M188.1-55.7v-6.9 M186.4-55.7v-6.9 M184.6-55.7v-6.9
		 M182.9-55.7v-6.9 M181.1-55.7v-6.9 M179.4-55.7v-6.9 M177.6-55.7v-6.9 M175.8-55.7v-6.9 M174.1-55.7v-6.9 M172.3-55.7v-6.9
		 M170.6-55.7v-6.9 M168.8-55.7v-6.9 M167.1-55.7v-6.9 M165.3-55.7v-6.9 M163.6-55.7v-6.9 M161.8-55.7v-6.9 M160.1-55.7v-6.9
		 M158.3-55.7v-6.9 M156.5-55.7v-6.9 M154.8-55.7v-6.9 M153-55.7v-6.9 M151.3-55.7v-6.9 M149.5-55.7v-6.9 M147.8-55.7v-6.9
		 M146-55.7v-6.9 M144.3-55.7v-6.9 M142.5-55.7v-6.9 M253-55.7v-6.9 M251.2-55.7v-6.9 M249.5-55.7v-6.9 M247.7-55.7v-6.9 M246-55.7
		v-6.9 M244.2-55.7v-6.9 M242.4-55.7v-6.9 M240.7-55.7v-6.9 M238.9-55.7v-6.9 M237.2-55.7v-6.9 M235.4-55.7v-6.9 M233.7-55.7v-6.9
		 M231.9-55.7v-6.9 M230.2-55.7v-6.9 M228.4-55.7v-6.9 M226.7-55.7v-6.9 M224.9-55.7v-6.9 M223.1-55.7v-6.9 M221.4-55.7v-6.9
		 M219.6-55.7v-6.9 M217.9-55.7v-6.9 M216.1-55.7v-6.9 M214.4-55.7v-6.9 M212.6-55.7v-6.9 M210.9-55.7v-6.9 M209.1-55.7v-6.9
		 M207.4-55.7v-6.9 M205.6-55.7v-6.9 M203.8-55.7v-6.9 M202.1-55.7v-6.9 M200.3-55.7v-6.9 M198.6-55.7v-6.9"/>
	<line class="st0" x1="188.4" y1="172.5" x2="194.7" y2="183.8"/>
</g>
</svg>
