<?xml version="1.0" encoding="utf-8"?>
<!-- Generator: Adobe Illustrator 27.4.1, SVG Export Plug-In . SVG Version: 6.00 Build 0)  -->
<svg version="1.1" id="Calque_1" xmlns="http://www.w3.org/2000/svg" xmlns:xlink="http://www.w3.org/1999/xlink" x="0px" y="0px"
	 viewBox="0 0 397 391" style="enable-background:new 0 0 397 391;" xml:space="preserve">
<style type="text/css">
	.st0{fill:#1D1D1B;}
	.st1{fill:none;stroke:#1D1D1B;stroke-width:1.6843;stroke-miterlimit:10;}
</style>
<g>
	<g>
		<path class="st0" d="M145.5,346v-39.6c0-22.9,12.3-34.3,36.8-34.3h30.2c24.5,0,36.8,11.4,36.8,34.3V346
			c0,22.9-12.3,34.3-36.8,34.3h-30.2C157.8,380.2,145.5,368.9,145.5,346 M177,347.6c0,4,2.2,6.1,6.6,6.1h27.5c4.4,0,6.6-2.1,6.6-6.1
			v-42.9c0-4-2.2-6.1-6.6-6.1h-27.6c-4.4,0-6.6,2.1-6.6,6.1v42.9H177z"/>
		<path class="st0" d="M3.7,117.8V10h30.2v33.1h37.6v24.5H33.9v52.3c0,4.4,2.3,6.6,7,6.6h32.8v15.3L60.6,151H39.2
			C15.5,150.8,3.7,139.8,3.7,117.8"/>
		<path class="st0" d="M80.1,117.8V76.1c0-22,11.8-33.1,35.5-33.1H144c23.6,0,35.5,11.1,35.5,33.1v31.4h-69.1v12.3
			c0,4.4,2.3,6.6,7,6.6h24.2v15.3v9.2h-25.9C91.9,150.8,80.1,139.8,80.1,117.8 M110.3,85.5h39V74.1c0-4.4-2.3-6.6-7-6.6h-25
			c-4.7,0-7,2.2-7,6.6V85.5z"/>
		<path class="st0" d="M193.5,150.4l-0.9-107.3h131.5c23.6,0,35.5,11.1,35.5,33.1V151h-30.2V74.1c0-4.4-2.3-6.6-7-6.6h-31.3v83.3
			h-30.2V67.6h-38.3l0.9,82.8L193.5,150.4L193.5,150.4z"/>
		<path class="st0" d="M35.3,299.5v-141h63.8c23.6,0,35.5,11.1,35.5,33.1v41.7c0,22-11.8,33.1-35.5,33.1H65.4v33.2H35.3z
			 M65.4,241.8h32c4.7,0,7-2.2,7-6.6v-45.7c0-4.4-2.3-6.6-7-6.6h-32V241.8z"/>
		<path class="st0" d="M145.3,227.1V126.3h30.2V230c0,8.4,4.7,13,14,13.9v24.5C160,268.4,145.3,254.6,145.3,227.1"/>
		<path class="st0" d="M196.2,233.3v-41.7c0-22,11.8-33.1,35.5-33.1h28.5c23.6,0,35.5,11.1,35.5,33.1V223h-69.2v12.3
			c0,4.4,2.3,6.6,7,6.6h57.7v15.3l-13.1,9.2h-46.3C208,266.3,196.2,255.4,196.2,233.3 M226.4,201h39v-11.4c0-4.4-2.3-6.6-7-6.6h-25
			c-4.7,0-7,2.2-7,6.6L226.4,201L226.4,201z"/>
		<path class="st0" d="M329.5,273.2h46.3l13.1,9.2v15.3h-57.7c-4.7,0-7,2.2-7,6.6v12.3h69.1v31.4c0,22-11.8,33.1-35.5,33.1h-28.5
			c-23.6,0-35.5-11.1-35.5-33.1v-41.7C294,284.3,305.9,273.2,329.5,273.2 M324.2,349.9c0,4.4,2.3,6.6,7,6.6h25c4.7,0,7-2.2,7-6.6
			v-11.4h-39L324.2,349.9L324.2,349.9z"/>
	</g>
	<polygon class="st0" points="91.2,272.2 76.6,282.8 76.6,298.7 104.6,298.7 104.6,354.3 104.6,380.8 136,380.8 136,354.3 
		136,272.2 	"/>
	<rect x="255" y="309.4" class="st0" width="31.1" height="29"/>
	<line class="st1" x1="329.4" y1="63.3" x2="329.4" y2="294"/>
	<line class="st1" x1="359" y1="123.4" x2="359" y2="294"/>
</g>
</svg>
