<svg version="1.0" id="Calque_1" xmlns="http://www.w3.org/2000/svg" x="0" y="0" viewBox="0 0 397 391" style="enable-background:new 0 0 397 391" xml:space="preserve"><style>.st0{fill:#fff}</style><path class="st0" d="M145.5 346v-39.6c0-22.9 12.3-34.3 36.8-34.3h30.2c24.5 0 36.8 11.4 36.8 34.3V346c0 22.9-12.3 34.3-36.8 34.3h-30.2c-24.5-.1-36.8-11.4-36.8-34.3m31.5 1.6c0 4 2.2 6.1 6.6 6.1h27.5c4.4 0 6.6-2.1 6.6-6.1v-42.9c0-4-2.2-6.1-6.6-6.1h-27.6c-4.4 0-6.6 2.1-6.6 6.1v42.9h.1zM3.7 117.8V10h30.2v33.1h37.6v24.5H33.9v52.3c0 4.4 2.3 6.6 7 6.6h32.8v15.3L60.6 151H39.2c-23.7-.2-35.5-11.2-35.5-33.2M80.1 117.8V76.1c0-22 11.8-33.1 35.5-33.1H144c23.6 0 35.5 11.1 35.5 33.1v31.4h-69.1v12.3c0 4.4 2.3 6.6 7 6.6h24.2v24.5h-25.9c-23.8-.1-35.6-11.1-35.6-33.1m30.2-32.3h39V74.1c0-4.4-2.3-6.6-7-6.6h-25c-4.7 0-7 2.2-7 6.6v11.4zM193.5 150.4l-.9-107.3h131.5c23.6 0 35.5 11.1 35.5 33.1V151h-30.2V74.1c0-4.4-2.3-6.6-7-6.6h-31.3v83.3h-30.2V67.6h-38.3l.9 82.8h-30zM35.3 299.5v-141h63.8c23.6 0 35.5 11.1 35.5 33.1v41.7c0 22-11.8 33.1-35.5 33.1H65.4v33.2H35.3v-.1zm30.1-57.7h32c4.7 0 7-2.2 7-6.6v-45.7c0-4.4-2.3-6.6-7-6.6h-32v58.9z"/><path class="st0" d="M145.3 227.1V126.3h30.2V230c0 8.4 4.7 13 14 13.9v24.5c-29.5 0-44.2-13.8-44.2-41.3M196.2 233.3v-41.7c0-22 11.8-33.1 35.5-33.1h28.5c23.6 0 35.5 11.1 35.5 33.1V223h-69.2v12.3c0 4.4 2.3 6.6 7 6.6h57.7v15.3l-13.1 9.2h-46.3c-23.8-.1-35.6-11-35.6-33.1m30.2-32.3h39v-11.4c0-4.4-2.3-6.6-7-6.6h-25c-4.7 0-7 2.2-7 6.6V201zM329.5 273.2h46.3l13.1 9.2v15.3h-57.7c-4.7 0-7 2.2-7 6.6v12.3h69.1V348c0 22-11.8 33.1-35.5 33.1h-28.5c-23.6 0-35.5-11.1-35.5-33.1v-41.7c.2-22 12.1-33.1 35.7-33.1m-5.3 76.7c0 4.4 2.3 6.6 7 6.6h25c4.7 0 7-2.2 7-6.6v-11.4h-39v11.4zM91.2 272.2l-14.6 10.6v15.9h28v82.1H136V272.2zM255 309.4h31.1v29H255z"/><path class="st0" d="M328.6 63.3h1.7V294h-1.7zM358.2 123.4h1.7V294h-1.7z"/></svg>